HIERARCHY
ROOT Hips
{
	OFFSET 0.00000 0.00000 0.00000
	CHANNELS 6 Xposition Yposition Zposition Zrotation Yrotation Xrotation 
	JOINT LHipJoint
	{
		OFFSET 0 0 0
		CHANNELS 3 Zrotation Yrotation Xrotation
		JOINT LeftUpLeg
		{
			OFFSET 1.75344 -1.53157 0.77399
			CHANNELS 3 Zrotation Yrotation Xrotation
			JOINT LeftLeg
			{
				OFFSET 2.25415 -6.19323 0.00000
				CHANNELS 3 Zrotation Yrotation Xrotation
				JOINT LeftFoot
				{
					OFFSET 2.30342 -6.32861 0.00000
					CHANNELS 3 Zrotation Yrotation Xrotation
					JOINT LeftToeBase
					{
						OFFSET 0.10958 -0.30108 1.49206
						CHANNELS 3 Zrotation Yrotation Xrotation
						End Site
						{
							OFFSET 0.00000 -0.00000 0.77783
						}
					}
				}
			}
		}
	}
	JOINT RHipJoint
	{
		OFFSET 0 0 0
		CHANNELS 3 Zrotation Yrotation Xrotation
		JOINT RightUpLeg
		{
			OFFSET -1.81912 -1.53156 0.77399
			CHANNELS 3 Zrotation Yrotation Xrotation
			JOINT RightLeg
			{
				OFFSET -2.22882 -6.12365 0.00000
				CHANNELS 3 Zrotation Yrotation Xrotation
				JOINT RightFoot
				{
					OFFSET -2.21943 -6.09785 0.00000
					CHANNELS 3 Zrotation Yrotation Xrotation
					JOINT RightToeBase
					{
						OFFSET -0.18931 -0.52012 1.59379
						CHANNELS 3 Zrotation Yrotation Xrotation
						End Site
						{
							OFFSET -0.00000 -0.00000 0.84686
						}
					}
				}
			}
		}
	}
	JOINT LowerBack
	{
		OFFSET 0 0 0
		CHANNELS 3 Zrotation Yrotation Xrotation
		JOINT Spine
		{
			OFFSET -0.00200 1.66634 -0.14248
			CHANNELS 3 Zrotation Yrotation Xrotation
			JOINT Spine1
			{
				OFFSET -0.00875 1.64542 0.09514
				CHANNELS 3 Zrotation Yrotation Xrotation
				JOINT Neck
				{
					OFFSET 0 0 0
					CHANNELS 3 Zrotation Yrotation Xrotation
					JOINT Neck1
					{
						OFFSET 0.02257 1.59605 0.00839
						CHANNELS 3 Zrotation Yrotation Xrotation
						JOINT Head
						{
							OFFSET -0.10214 1.57530 -0.23335
							CHANNELS 3 Zrotation Yrotation Xrotation
							End Site
							{
								OFFSET -0.03588 1.60717 -0.08062
							}
						}
					}
				}
				JOINT LeftShoulder
				{
					OFFSET 0 0 0
					CHANNELS 3 Zrotation Yrotation Xrotation
					JOINT LeftArm
					{
						OFFSET 2.54983 1.10186 0.40078
						CHANNELS 3 Zrotation Yrotation Xrotation
						JOINT LeftForeArm
						{
							OFFSET 4.28840 -0.00000 0.00000
							CHANNELS 3 Zrotation Yrotation Xrotation
							JOINT LeftHand
							{
								OFFSET 3.06552 -0.00000 -0.00000
								CHANNELS 3 Zrotation Yrotation Xrotation
								JOINT LeftFingerBase
								{
									OFFSET 0 0 0
									CHANNELS 3 Zrotation Yrotation Xrotation
									JOINT LeftHandIndex1
									{
										OFFSET 0.75304 -0.00000 0.00000
										CHANNELS 3 Zrotation Yrotation Xrotation
										End Site
										{
											OFFSET 0.60712 -0.00000 0.00000
										}
									}
								}
								JOINT LThumb
								{
									OFFSET 0 0 0
									CHANNELS 3 Zrotation Yrotation Xrotation
									End Site
									{
										OFFSET 0.61639 -0.00000 0.61639
									}
								}
							}
						}
					}
				}
				JOINT RightShoulder
				{
					OFFSET 0 0 0
					CHANNELS 3 Zrotation Yrotation Xrotation
					JOINT RightArm
					{
						OFFSET -2.60909 1.35448 0.21802
						CHANNELS 3 Zrotation Yrotation Xrotation
						JOINT RightForeArm
						{
							OFFSET -4.52172 -0.00000 -0.00000
							CHANNELS 3 Zrotation Yrotation Xrotation
							JOINT RightHand
							{
								OFFSET -2.89140 -0.00000 0.00000
								CHANNELS 3 Zrotation Yrotation Xrotation
								JOINT RightFingerBase
								{
									OFFSET 0 0 0
									CHANNELS 3 Zrotation Yrotation Xrotation
									JOINT RightHandIndex1
									{
										OFFSET -0.68054 -0.00000 0.00000
										CHANNELS 3 Zrotation Yrotation Xrotation
										End Site
										{
											OFFSET -0.54867 -0.00000 0.00000
										}
									}
								}
								JOINT RThumb
								{
									OFFSET 0 0 0
									CHANNELS 3 Zrotation Yrotation Xrotation
									End Site
									{
										OFFSET -0.55705 -0.00000 0.55705
									}
								}
							}
						}
					}
				}
			}
		}
	}
}
MOTION
Frames: 11
Frame Time: .0083333
9.6027 15.3096 -36.8495 -5.7082 -62.7283 -349.1070 0.0000 0.0000 0.0000 -18.7152 -7.2702 -23.2050 6.9474 15.2875 48.6753 2.1491 -0.4422 -27.6328 1.5466 -7.8500 -22.2593 0.0000 0.0000 0.0000 29.2888 8.2053 -11.3068 -2.1299 -9.1316 26.2078 0.5183 -26.4155 -34.1707 -0.9814 -6.3061 17.6751 2.4474 0.6265 9.8316 1.2967 1.2195 -1.4972 -0.2054 0.5219 -7.0821 8.6545 14.5185 -4.0001 -8.5937 19.4059 3.6836 -2.8435 9.5437 3.4038 -0.0000 -0.0000 0.0000 -93.6508 -4.3282 99.3621 115.7188 -57.3468 -82.0747 -0.0000 0.0000 -21.6306 -28.3222 -21.6107 11.2268 -7.1250 0.0000 -0.0000 -33.2692 7.7672 35.2897 -0.0000 -0.0000 0.0000 97.8111 14.5510 69.6675 -17.0798 26.9629 -4.1235 0.0000 0.0000 18.1149 -9.8910 -58.3002 8.4384 7.1250 -0.0000 -0.0000 88.0666 -75.5709 -73.1031
9.6060 15.3163 -36.8865 -5.5210 -61.8053 -349.6120 0.0000 0.0000 0.0000 -18.9160 -5.7273 -23.0094 6.9881 15.3219 48.8294 2.2123 0.0698 -28.2025 1.2277 -7.0272 -19.7961 0.0000 0.0000 0.0000 29.4490 7.7946 -11.0831 -2.1193 -9.1103 26.1408 -0.0258 -25.4918 -35.9480 -1.6598 -8.1183 23.0738 2.5440 0.7610 9.9800 1.1760 1.4041 -1.3521 -0.4172 0.6075 -7.0033 8.5814 14.1409 -4.2810 -7.9823 18.8421 3.7908 -2.6909 9.2743 3.3665 -0.0000 -0.0000 0.0000 -94.0739 -3.7876 98.5878 115.5486 -57.3839 -81.9314 -0.0000 0.0000 -20.9455 -30.2701 -21.6971 12.1764 -7.1250 0.0000 -0.0000 -34.0872 7.2680 37.0844 -0.0000 -0.0000 0.0000 98.1309 14.6939 70.0187 -17.2401 27.1732 -4.1964 0.0000 0.0000 17.5024 -10.1564 -57.5943 8.6006 7.1250 -0.0000 -0.0000 85.3049 -75.6904 -70.4313
9.6122 15.3203 -36.9112 -5.1310 -60.4446 -349.8520 0.0000 0.0000 0.0000 -19.1779 -5.2429 -23.0549 7.0222 15.3505 48.9581 2.2440 1.2873 -28.8247 1.1709 -6.8686 -19.3268 0.0000 0.0000 0.0000 29.4609 7.2854 -11.4697 -2.1155 -9.1026 26.1167 -0.3028 -25.1706 -37.0093 -2.0920 -9.0551 25.9680 3.0055 1.1204 9.7794 0.6145 1.8994 -1.4241 -1.3401 0.8220 -6.9192 9.7404 13.4172 -4.8802 -7.6441 17.7413 4.2697 -2.7817 8.7381 3.5883 0.0000 0.0000 0.0000 -92.0611 -5.4323 101.2381 115.5641 -57.3806 -81.9444 -0.0000 0.0000 -22.4305 -27.7875 -22.3562 11.3340 -7.1250 0.0000 -0.0000 -32.9033 7.1945 35.1458 0.0000 0.0000 0.0000 98.9822 14.7844 68.5855 -17.3033 27.2558 -4.2253 0.0000 0.0000 17.6638 -10.0531 -56.7298 8.4313 7.1250 -0.0000 -0.0000 81.8875 -75.6404 -66.9580
9.6215 15.3169 -36.9375 -4.8237 -59.0632 -350.0490 0.0000 0.0000 0.0000 -19.3659 -4.6018 -23.1105 6.9978 15.3301 48.8661 2.2690 1.6396 -29.1134 0.8491 -5.8770 -16.4278 0.0000 0.0000 0.0000 29.5339 6.8752 -11.8140 -2.1158 -9.1032 26.1186 -0.5147 -25.0595 -37.9592 -2.4803 -9.8020 28.3378 3.0212 1.0617 9.7370 0.7066 1.8318 -1.5718 -1.2426 0.7866 -7.0581 9.5105 13.0428 -5.0459 -7.2812 17.2277 4.5821 -2.6734 8.4877 3.6149 -0.0000 0.0000 0.0000 -92.2508 -5.3288 101.4254 115.4694 -57.4011 -81.8647 -0.0000 0.0000 -22.2623 -27.7898 -22.7740 11.5304 -7.1250 0.0000 -0.0000 -32.8325 6.8148 35.3263 -0.0000 0.0000 0.0000 98.8672 14.5995 68.9423 -17.4536 27.4519 -4.2944 0.0000 0.0000 17.4135 -9.4122 -56.3310 7.8550 7.1250 -0.0000 -0.0000 80.3866 -75.3847 -65.1876
9.6318 15.3178 -36.9696 -4.6808 -57.8831 -350.2780 0.0000 0.0000 0.0000 -19.4698 -4.0558 -22.8789 6.9546 15.2935 48.7024 2.3447 1.7592 -29.6308 0.5590 -4.7888 -13.3073 0.0000 0.0000 0.0000 29.6990 6.4918 -11.9787 -2.1233 -9.1183 26.1661 -0.4875 -25.4710 -38.3290 -2.6201 -10.0530 29.1486 3.1642 1.0923 9.9724 0.6881 1.9012 -1.6621 -1.3605 0.8091 -7.2815 9.3360 12.6127 -5.2566 -6.8291 16.6189 4.8165 -2.5538 8.1942 3.6171 -0.0000 -0.0000 0.0000 -92.3072 -5.0153 101.7108 115.3849 -57.4193 -81.7935 -0.0000 0.0000 -22.0386 -28.2922 -22.6594 11.7153 -7.1250 0.0000 -0.0000 -33.0723 6.8217 35.7178 -0.0000 -0.0000 0.0000 98.9656 14.5298 69.0972 -17.5230 27.5421 -4.3264 0.0000 0.0000 17.1893 -8.6323 -55.7739 7.1544 7.1250 -0.0000 -0.0000 78.3883 -75.0459 -62.8487
9.6364 15.3236 -36.9885 -4.4691 -56.8178 -350.3120 0.0000 0.0000 0.0000 -19.6550 -3.5690 -22.8741 6.8974 15.2449 48.4854 2.3964 2.3326 -30.1712 0.5448 -4.7287 -13.1363 0.0000 0.0000 0.0000 29.7141 6.0972 -12.4190 -2.1297 -9.1312 26.2067 -0.4273 -25.8305 -38.4757 -2.7404 -10.2625 29.8311 2.7749 1.1302 9.7208 0.9552 1.9128 -1.7023 -0.8566 0.8382 -7.2009 9.1171 12.2802 -5.6958 -6.5980 16.1514 5.2016 -2.4581 7.9568 3.7317 0.0000 0.0000 0.0000 -93.5650 -5.4949 101.7378 113.4761 -57.8115 -80.1815 -0.0000 0.0000 -22.6589 -28.6864 -22.1641 11.6636 -7.1250 0.0000 -0.0000 -33.3298 7.1916 35.8540 0.0000 0.0000 0.0000 98.5874 14.5317 69.6833 -17.6331 27.6848 -4.3774 0.0000 0.0000 16.8798 -7.9078 -55.0639 6.4963 7.1250 -0.0000 -0.0000 75.9400 -74.6767 -60.0640
9.6443 15.3279 -37.0095 -4.1111 -55.7018 -350.5310 0.0000 0.0000 0.0000 -19.9242 -3.0817 -22.8176 6.8257 15.1833 48.2120 2.3655 3.0682 -30.2835 0.4219 -4.1688 -11.5520 0.0000 0.0000 0.0000 29.6443 5.7257 -12.7547 -2.1332 -9.1381 26.2283 -0.5099 -25.8730 -38.9340 -3.0341 -10.7500 31.4414 2.4912 1.0865 9.6254 1.1250 1.8299 -1.7760 -0.5042 0.8124 -7.2417 8.7205 11.9461 -5.9572 -6.2167 15.6947 5.4743 -2.3094 7.7320 3.7604 0.0000 0.0000 0.0000 -92.6170 -5.2249 101.6694 115.1242 -57.4751 -81.5737 -0.0000 0.0000 -22.6573 -28.5338 -22.3995 11.7056 -7.1250 0.0000 -0.0000 -33.2225 7.0092 35.8201 0.0000 0.0000 0.0000 98.3018 14.4462 70.4008 -17.7092 27.7833 -4.4129 0.0000 0.0000 16.6919 -8.1483 -54.4588 6.6454 7.1250 -0.0000 -0.0000 73.6775 -74.6492 -57.8786
9.6545 15.3252 -37.0303 -3.9295 -54.5957 -350.9040 0.0000 0.0000 0.0000 -20.1066 -2.4816 -22.4706 6.7399 15.1089 47.8835 2.2880 3.8361 -30.1436 0.3583 -3.8457 -10.6430 0.0000 0.0000 0.0000 29.7092 5.4088 -12.7605 -2.1495 -9.1707 26.3308 -0.8167 -25.6684 -40.1482 -3.4457 -11.3838 33.5856 2.4723 1.0509 9.8595 1.2365 1.7958 -1.7764 -0.3762 0.7968 -7.3817 8.3267 11.5808 -6.0687 -5.8436 15.2022 5.5807 -2.1796 7.4934 3.7162 -0.0000 0.0000 0.0000 -92.9152 -5.1093 101.5697 114.8747 -57.5278 -81.3634 -0.0000 0.0000 -22.6374 -28.9976 -22.1528 11.8048 -7.1250 0.0000 -0.0000 -33.4662 7.1374 36.1268 -0.0000 0.0000 0.0000 98.1120 14.3601 70.9271 -17.7579 27.8461 -4.4356 0.0000 0.0000 16.4307 -8.6654 -54.2231 7.0486 7.1250 -0.0000 -0.0000 72.6493 -74.7893 -57.0677
9.6662 15.3256 -37.0535 -3.7905 -53.4384 -350.8820 0.0000 0.0000 0.0000 -20.2161 -2.0044 -22.5403 6.6333 15.0151 47.4733 2.2087 4.3806 -29.9037 0.4335 -4.2249 -11.7104 0.0000 0.0000 0.0000 29.7862 5.3580 -13.1402 -2.1768 -9.2250 26.5016 -1.1042 -25.6755 -41.4624 -3.6986 -11.7481 34.8466 2.5382 1.0314 9.7797 1.3059 1.7838 -1.9074 -0.3375 0.7877 -7.4768 8.0404 11.1816 -6.0935 -5.5151 14.6630 5.6203 -2.0866 7.2340 3.6496 -0.0000 0.0000 0.0000 -93.4316 -4.7139 101.0685 114.9233 -57.5176 -81.4043 -0.0000 0.0000 -22.3766 -30.1433 -21.8460 12.1931 -7.1250 0.0000 -0.0000 -34.0074 7.1628 37.0328 -0.0000 0.0000 0.0000 97.9445 14.1905 71.2270 -17.8366 27.9475 -4.4724 0.0000 0.0000 16.1343 -7.7915 -54.9038 6.3879 7.1250 -0.0000 -0.0000 75.3957 -74.6058 -59.4621
9.6739 15.3249 -37.0671 -3.4861 -52.4565 -351.0160 0.0000 0.0000 0.0000 -20.5164 -1.8352 -22.3499 6.4945 14.8910 46.9357 2.1819 4.9184 -29.9976 0.5010 -4.5375 -12.5939 0.0000 0.0000 0.0000 29.6942 5.3176 -13.4499 -2.2059 -9.2825 26.6830 -1.2004 -25.9373 -42.1730 -3.7543 -11.8260 35.1193 2.4749 1.0255 9.6088 1.3719 1.7697 -2.0171 -0.2274 0.7844 -7.5004 7.7040 10.8368 -6.0870 -5.1530 14.2024 5.6805 -1.9698 7.0140 3.5864 -0.0000 -0.0000 0.0000 -93.2050 -5.1058 101.4287 114.7654 -57.5507 -81.2711 -0.0000 0.0000 -22.5681 -28.9297 -22.6514 12.0166 -7.1250 0.0000 -0.0000 -33.3499 6.6996 36.2802 -0.0000 -0.0000 0.0000 97.7705 13.9703 71.5270 -17.8756 27.9976 -4.4907 0.0000 0.0000 15.8485 -6.6502 -55.5877 5.4943 7.1250 -0.0000 -0.0000 78.1606 -74.3033 -61.7780
9.6861 15.3208 -37.0778 -3.1336 -51.3647 -351.5770 0.0000 0.0000 0.0000 -20.8568 -1.7707 -21.6864 6.3240 14.7352 46.2687 2.1210 5.3492 -29.8330 0.6015 -4.9645 -13.8074 0.0000 0.0000 0.0000 29.5751 5.0384 -13.4250 -2.2381 -9.3454 26.8818 -1.2683 -26.2868 -42.8449 -3.8567 -11.9672 35.6161 2.3340 0.9873 9.8810 1.4732 1.7174 -1.9970 -0.0384 0.7658 -7.6438 7.4127 10.5074 -6.2644 -4.6526 13.7355 5.6267 -2.0134 6.8065 3.9076 -0.0000 -0.0000 0.0000 -92.8175 -4.9972 101.7175 115.6054 -57.3716 -81.9792 -0.0000 0.0000 -22.9532 -28.2209 -22.7980 11.7472 -7.1250 0.0000 -0.0000 -33.0175 6.7100 35.7140 -0.0000 -0.0000 0.0000 97.4431 13.7649 72.0929 -17.5116 27.5273 -4.3211 0.0000 0.0000 17.3390 -8.1557 -54.5398 6.6581 7.1250 -0.0000 -0.0000 73.9682 -74.6688 -58.1759
